<svg width="199" height="230" viewBox="0 0 199 230" fill="none" xmlns="http://www.w3.org/2000/svg">
<g style="mix-blend-mode:multiply" filter="url(#filter0_f_113_1294)">
<mask id="path-1-inside-1_113_1294" fill="white">
<path fill-rule="evenodd" clip-rule="evenodd" d="M305.994 171.783C307.722 174.924 309.667 177.921 311.827 180.745L311.856 180.76C312.835 182.085 313.872 183.353 314.938 184.592L315.424 185.29C329.5 201.333 350.145 211.465 373.167 211.465C415.656 211.465 450.078 176.999 450.078 134.522C450.078 92.0442 415.656 57.5782 373.167 57.5782C344.232 57.5782 319.056 73.5577 305.935 97.1882L279.924 59.8836C301.816 32.55 335.447 15.0432 373.167 15.0432C439.147 15.0432 492.595 68.5434 492.595 134.522C492.595 200.5 439.132 254 373.167 254C369.726 254 366.34 253.803 362.983 253.521L362.986 253.525C327.699 250.499 296.776 232.171 276.958 205.125L277.116 205.01L271.283 196.653L271.168 196.48L249.722 165.76L200.738 95.5024L200.623 95.3295C198.664 92.0298 196.461 88.8743 194.041 85.9061L193.883 85.7043L193.767 85.5747C190.21 81.252 186.148 77.3328 181.741 73.8747C168.692 63.6444 152.287 57.5782 134.428 57.5782C91.9685 57.5782 57.517 92.0442 57.517 134.522C57.517 176.999 91.9541 211.465 134.428 211.465C163.421 211.465 188.669 195.399 201.79 171.682L227.801 208.987C205.938 236.421 172.221 254 134.428 254C68.4776 254 15 200.5 15 134.522C15 68.5434 68.4776 15.0432 134.399 15C166.762 15 196.101 27.8815 217.604 48.8032C222.573 53.6158 227.139 58.8894 231.186 64.5233L231.503 64.9267L233.433 67.6932L233.634 68.0102L258.047 103.009L305.965 171.74C305.98 171.754 305.994 171.783 305.994 171.783Z"/>
</mask>
<path d="M300.992 161.984L281.242 133.649L278.781 135.365L298.531 163.699L300.992 161.984ZM311.827 180.745L309.444 182.568L309.865 183.118L310.484 183.428L311.827 180.745ZM305.994 171.783L303.31 173.122L303.336 173.176L303.366 173.229L305.994 171.783ZM311.856 180.76L314.269 178.977L313.842 178.399L313.199 178.077L311.856 180.76ZM314.938 184.592L317.399 182.877L317.312 182.752L317.213 182.636L314.938 184.592ZM315.424 185.29L312.963 187.005L313.059 187.142L313.169 187.268L315.424 185.29ZM305.935 97.1882L303.474 98.9041L306.224 102.848L308.558 98.6445L305.935 97.1882ZM279.924 59.8836L277.582 58.0082L276.18 59.7593L277.463 61.5995L279.924 59.8836ZM362.983 253.521L363.235 250.531L356.848 249.994L360.527 255.243L362.983 253.521ZM362.986 253.525L362.729 256.514L369.129 257.062L365.443 251.803L362.986 253.525ZM276.958 205.125L275.193 202.699L272.759 204.47L274.538 206.898L276.958 205.125ZM277.116 205.01L278.881 207.436L281.26 205.705L279.576 203.293L277.116 205.01ZM271.283 196.653L268.787 198.316L268.805 198.343L268.823 198.37L271.283 196.653ZM271.168 196.48L273.665 194.816L273.647 194.789L273.628 194.762L271.168 196.48ZM249.722 165.76L247.261 167.476L247.262 167.477L249.722 165.76ZM200.738 95.5024L198.242 97.1659L198.259 97.1922L198.277 97.2181L200.738 95.5024ZM200.623 95.3295L198.043 96.8609L198.083 96.928L198.127 96.993L200.623 95.3295ZM194.041 85.9061L191.682 87.759L191.699 87.7805L191.716 87.8016L194.041 85.9061ZM193.883 85.7043L196.242 83.8514L196.186 83.7798L196.125 83.7118L193.883 85.7043ZM193.767 85.5747L191.451 87.481L191.487 87.5248L191.525 87.5672L193.767 85.5747ZM181.741 73.8747L183.593 71.5145L183.592 71.5137L181.741 73.8747ZM201.79 171.682L204.251 169.966L201.496 166.016L199.165 170.23L201.79 171.682ZM227.801 208.987L230.147 210.856L231.542 209.106L230.262 207.271L227.801 208.987ZM134.399 15V12L134.397 12L134.399 15ZM217.604 48.8032L215.512 50.9534L215.517 50.9582L217.604 48.8032ZM231.186 64.5233L228.749 66.2736L228.787 66.3258L228.827 66.3763L231.186 64.5233ZM231.503 64.9267L233.963 63.2103L233.915 63.1406L233.862 63.0737L231.503 64.9267ZM233.433 67.6932L235.964 66.0832L235.93 66.0292L235.893 65.9768L233.433 67.6932ZM233.634 68.0102L231.103 69.6203L231.137 69.6742L231.174 69.7265L233.634 68.0102ZM258.047 103.009L260.508 101.294L260.508 101.293L258.047 103.009ZM305.965 171.74L303.504 173.455L303.656 173.673L303.843 173.86L305.965 171.74ZM314.21 178.923C312.144 176.222 310.281 173.351 308.622 170.337L303.366 173.229C305.163 176.497 307.189 179.62 309.444 182.568L314.21 178.923ZM313.199 178.077L313.17 178.063L310.484 183.428L310.513 183.442L313.199 178.077ZM317.213 182.636C316.178 181.433 315.191 180.225 314.269 178.977L309.443 182.542C310.48 183.945 311.567 185.273 312.664 186.549L317.213 182.636ZM317.885 183.574L317.399 182.877L312.477 186.308L312.963 187.005L317.885 183.574ZM373.167 208.465C351.045 208.465 331.21 198.734 317.679 183.311L313.169 187.268C327.79 203.933 349.244 214.465 373.167 214.465V208.465ZM447.078 134.522C447.078 175.344 413.997 208.465 373.167 208.465V214.465C417.315 214.465 453.078 178.654 453.078 134.522H447.078ZM373.167 60.5782C413.997 60.5782 447.078 93.6992 447.078 134.522H453.078C453.078 90.3893 417.315 54.5782 373.167 54.5782V60.5782ZM308.558 98.6445C321.172 75.9274 345.366 60.5782 373.167 60.5782V54.5782C343.098 54.5782 316.941 71.1879 303.312 95.7319L308.558 98.6445ZM277.463 61.5995L303.474 98.9041L308.396 95.4723L282.385 58.1678L277.463 61.5995ZM373.167 12.0432C334.496 12.0432 300.019 29.9952 277.582 58.0082L282.265 61.759C303.613 35.1048 336.397 18.0432 373.167 18.0432V12.0432ZM495.595 134.522C495.595 66.8882 440.805 12.0432 373.167 12.0432V18.0432C437.488 18.0432 489.595 70.1985 489.595 134.522H495.595ZM373.167 257C440.791 257 495.595 202.155 495.595 134.522H489.595C489.595 198.844 437.474 251 373.167 251V257ZM362.732 256.51C366.139 256.797 369.614 257 373.167 257V251C369.838 251 366.542 250.81 363.235 250.531L362.732 256.51ZM365.443 251.803L365.44 251.799L360.527 255.243L360.529 255.246L365.443 251.803ZM274.538 206.898C294.851 234.619 326.551 253.411 362.729 256.514L363.242 250.535C328.846 247.586 298.701 229.722 279.378 203.352L274.538 206.898ZM275.352 202.584L275.193 202.699L278.723 207.551L278.881 207.436L275.352 202.584ZM268.823 198.37L274.656 206.727L279.576 203.293L273.743 194.936L268.823 198.37ZM268.672 198.143L268.787 198.316L273.78 194.989L273.665 194.816L268.672 198.143ZM247.262 167.477L268.708 198.197L273.628 194.762L252.182 164.043L247.262 167.477ZM198.277 97.2181L247.261 167.476L252.183 164.044L203.199 93.7866L198.277 97.2181ZM198.127 96.993L198.242 97.1659L203.235 93.8388L203.12 93.6659L198.127 96.993ZM191.716 87.8016C194.041 90.6545 196.16 93.6882 198.043 96.8609L203.203 93.7981C201.169 90.3714 198.88 87.0941 196.366 84.0105L191.716 87.8016ZM191.523 87.5573L191.682 87.759L196.4 84.0532L196.242 83.8514L191.523 87.5573ZM191.525 87.5672L191.64 87.6969L196.125 83.7118L196.01 83.5821L191.525 87.5672ZM179.889 76.2348C184.136 79.5668 188.039 83.3356 191.451 87.481L196.084 83.6683C192.38 79.1684 188.161 75.0987 183.593 71.5145L179.889 76.2348ZM134.428 60.5782C151.595 60.5782 167.352 66.406 179.89 76.2356L183.592 71.5137C170.032 60.8827 152.98 54.5782 134.428 54.5782V60.5782ZM60.517 134.522C60.517 93.6999 93.6266 60.5782 134.428 60.5782V54.5782C90.3105 54.5782 54.517 90.3886 54.517 134.522H60.517ZM134.428 208.465C93.6125 208.465 60.517 175.344 60.517 134.522H54.517C54.517 178.654 90.2957 214.465 134.428 214.465V208.465ZM199.165 170.23C186.55 193.032 162.284 208.465 134.428 208.465V214.465C164.558 214.465 190.788 197.766 204.415 173.134L199.165 170.23ZM230.262 207.271L204.251 169.966L199.329 173.398L225.34 210.703L230.262 207.271ZM134.428 257C173.172 257 207.739 238.975 230.147 210.856L225.455 207.117C204.137 233.868 171.269 251 134.428 251V257ZM12 134.522C12 202.155 66.8195 257 134.428 257V251C70.1356 251 18 198.844 18 134.522H12ZM134.397 12C66.819 12.0443 12 66.8878 12 134.522H18C18 70.1989 70.1361 18.0421 134.401 18L134.397 12ZM219.696 46.653C197.656 25.2088 167.575 12 134.399 12V18C165.949 18 194.546 30.5543 215.512 50.9534L219.696 46.653ZM233.622 62.773C229.47 56.992 224.787 51.5832 219.691 46.6483L215.517 50.9582C220.359 55.6483 224.808 60.7868 228.749 66.2736L233.622 62.773ZM233.862 63.0737L233.545 62.6703L228.827 66.3763L229.143 66.7797L233.862 63.0737ZM235.893 65.9768L233.963 63.2103L229.042 66.6432L230.972 69.4097L235.893 65.9768ZM236.166 66.4002L235.964 66.0832L230.901 69.3033L231.103 69.6203L236.166 66.4002ZM260.508 101.293L236.095 66.294L231.174 69.7265L255.587 104.726L260.508 101.293ZM308.426 170.024L260.508 101.294L255.586 104.725L303.504 173.455L308.426 170.024ZM305.994 171.783C308.678 170.444 308.678 170.443 308.678 170.443C308.678 170.443 308.678 170.443 308.678 170.443C308.678 170.442 308.677 170.442 308.677 170.441C308.677 170.441 308.677 170.44 308.676 170.439C308.676 170.438 308.675 170.436 308.674 170.435C308.673 170.432 308.671 170.429 308.669 170.426C308.666 170.419 308.663 170.413 308.659 170.406C308.652 170.392 308.643 170.376 308.634 170.358C308.616 170.324 308.59 170.278 308.559 170.225C308.531 170.178 308.369 169.901 308.088 169.62L303.843 173.86C303.576 173.593 303.429 173.337 303.411 173.308C303.385 173.264 303.364 173.226 303.349 173.198C303.341 173.184 303.334 173.17 303.328 173.158C303.324 173.151 303.321 173.145 303.318 173.14C303.317 173.137 303.315 173.134 303.314 173.131C303.313 173.129 303.312 173.128 303.312 173.127C303.311 173.126 303.311 173.125 303.311 173.124C303.31 173.124 303.31 173.124 303.31 173.123C303.31 173.123 303.31 173.123 303.31 173.123C303.31 173.123 303.31 173.122 305.994 171.783Z" fill="#464646" mask="url(#path-1-inside-1_113_1294)"/>
</g>
<defs>
<filter id="filter0_f_113_1294" x="0" y="0" width="507.596" height="269" filterUnits="userSpaceOnUse" color-interpolation-filters="sRGB">
<feFlood flood-opacity="0" result="BackgroundImageFix"/>
<feBlend mode="normal" in="SourceGraphic" in2="BackgroundImageFix" result="shape"/>
<feGaussianBlur stdDeviation="7.5" result="effect1_foregroundBlur_113_1294"/>
</filter>
</defs>
</svg>
