<svg width="378" height="400" viewBox="0 0 378 400" fill="none" xmlns="http://www.w3.org/2000/svg">
<g>
<mask id="path-1-inside-1_107_1082" fill="white">
<path fill-rule="evenodd" clip-rule="evenodd" d="M74.6556 257.267C77.3263 262.121 80.3309 266.752 83.6692 271.116L83.7137 271.139C85.2271 273.187 86.8296 275.146 88.4765 277.061L89.2241 278.134C110.975 302.928 142.878 318.586 178.456 318.586C244.111 318.586 297.302 265.328 297.302 199.69C297.302 134.052 244.111 80.7939 178.456 80.7939C133.744 80.7939 94.841 105.486 74.566 142.001L34.3721 84.3563C68.2009 42.1192 120.168 15.0671 178.456 15.0671C280.41 15.0671 363.001 97.7376 363.001 199.69C363.001 301.642 280.387 384.313 178.456 384.313C173.137 384.313 167.906 384.009 162.718 383.572L162.722 383.578C108.195 378.902 60.412 350.581 29.788 308.789L30.0328 308.611L21.0192 295.697L20.8412 295.43L-12.2977 247.961L-87.9895 139.396L-88.1676 139.128C-91.1944 134.03 -94.5995 129.154 -98.3385 124.567L-98.5833 124.255L-98.7613 124.055C-104.259 117.375 -110.535 111.319 -117.345 105.976C-137.509 90.1672 -162.858 80.7936 -190.455 80.7936C-256.065 80.7936 -309.301 134.052 -309.301 199.69C-309.301 265.327 -256.087 318.586 -190.455 318.586C-145.654 318.586 -106.64 293.76 -86.3649 257.112L-46.171 314.756C-79.9552 357.149 -132.056 384.312 -190.455 384.312C-292.364 384.312 -375 301.642 -375 199.69C-375 97.7374 -292.364 15.0668 -190.5 15C-140.491 15 -95.1559 34.9051 -61.928 67.2341C-54.2498 74.6707 -47.1947 82.8197 -40.9408 91.5254L-40.4512 92.1488L-37.4689 96.4238L-37.1573 96.9136L0.566193 150.996L74.6111 257.201C74.6334 257.223 74.6556 257.267 74.6556 257.267Z"/>
</mask>
<path d="M65.5203 243.287L34.9164 199.381L34.096 199.953L64.6999 243.859L65.5203 243.287ZM83.6692 271.116L82.875 271.724L83.0153 271.907L83.2218 272.011L83.6692 271.116ZM74.6556 257.267L73.7611 257.714L73.77 257.732L73.7795 257.749L74.6556 257.267ZM83.7137 271.139L84.518 270.544L84.3756 270.352L84.1612 270.244L83.7137 271.139ZM88.4765 277.061L89.2968 276.489L89.2678 276.448L89.2346 276.409L88.4765 277.061ZM89.2241 278.134L88.4037 278.705L88.4356 278.751L88.4723 278.793L89.2241 278.134ZM74.566 142.001L73.7457 142.573L74.6623 143.887L75.4403 142.486L74.566 142.001ZM34.3721 84.3563L33.5916 83.7311L33.1241 84.3148L33.5518 84.9282L34.3721 84.3563ZM162.718 383.572L162.802 382.576L160.68 382.397L161.898 384.144L162.718 383.572ZM162.722 383.578L162.636 384.574L164.762 384.756L163.542 383.006L162.722 383.578ZM29.788 308.789L29.1997 307.98L28.3883 308.571L28.9814 309.38L29.788 308.789ZM30.0328 308.611L30.6211 309.42L31.4141 308.843L30.8528 308.039L30.0328 308.611ZM21.0192 295.697L20.187 296.252L20.193 296.261L20.1992 296.269L21.0192 295.697ZM20.8412 295.43L21.6734 294.875L21.6674 294.866L21.6611 294.857L20.8412 295.43ZM-12.2977 247.961L-13.118 248.532L-13.1176 248.533L-12.2977 247.961ZM-87.9895 139.396L-88.8217 139.95L-88.8159 139.959L-88.8098 139.967L-87.9895 139.396ZM-88.1676 139.128L-89.0275 139.639L-89.0142 139.661L-88.9998 139.683L-88.1676 139.128ZM-98.3385 124.567L-99.1249 125.185L-99.1193 125.192L-99.1136 125.199L-98.3385 124.567ZM-98.5833 124.255L-97.7969 123.638L-97.8156 123.614L-97.8357 123.591L-98.5833 124.255ZM-98.7613 124.055L-99.5334 124.69L-99.5215 124.705L-99.5089 124.719L-98.7613 124.055ZM-117.345 105.976L-116.728 105.189L-116.728 105.189L-117.345 105.976ZM-86.3649 257.112L-85.5446 256.54L-86.4628 255.223L-87.2399 256.627L-86.3649 257.112ZM-46.171 314.756L-45.3889 315.379L-44.924 314.796L-45.3507 314.184L-46.171 314.756ZM-190.5 15V14L-190.5 14L-190.5 15ZM-61.928 67.2341L-62.6254 67.9509L-62.6237 67.9524L-61.928 67.2341ZM-40.9408 91.5254L-41.753 92.1088L-41.7405 92.1262L-41.7273 92.1431L-40.9408 91.5254ZM-40.4512 92.1488L-39.631 91.5767L-39.6472 91.5535L-39.6648 91.5312L-40.4512 92.1488ZM-37.4689 96.4238L-36.6252 95.887L-36.6366 95.8691L-36.6488 95.8516L-37.4689 96.4238ZM-37.1573 96.9136L-38.0011 97.4503L-37.9897 97.4682L-37.9775 97.4857L-37.1573 96.9136ZM0.566193 150.996L1.38651 150.424L1.38638 150.424L0.566193 150.996ZM74.6111 257.201L73.7908 257.773L73.8413 257.845L73.9038 257.907L74.6111 257.201ZM84.4635 270.509C81.1566 266.186 78.1793 261.597 75.5318 256.785L73.7795 257.749C76.4734 262.645 79.5051 267.319 82.875 271.724L84.4635 270.509ZM84.1612 270.244L84.1167 270.222L83.2218 272.011L83.2663 272.033L84.1612 270.244ZM89.2346 276.409C87.5981 274.506 86.0124 272.567 84.518 270.544L82.9095 271.733C84.4419 273.807 86.061 275.786 87.7183 277.713L89.2346 276.409ZM90.0444 277.562L89.2968 276.489L87.6561 277.633L88.4037 278.705L90.0444 277.562ZM178.456 317.586C143.178 317.586 111.545 302.061 89.9758 277.474L88.4723 278.793C110.405 303.794 142.578 319.586 178.456 319.586V317.586ZM296.302 199.69C296.302 264.776 243.558 317.586 178.456 317.586V319.586C244.663 319.586 298.302 265.879 298.302 199.69H296.302ZM178.456 81.7939C243.558 81.7939 296.302 134.604 296.302 199.69H298.302C298.302 133.501 244.663 79.7939 178.456 79.7939V81.7939ZM75.4403 142.486C95.5462 106.276 134.122 81.7939 178.456 81.7939V79.7939C133.366 79.7939 94.1358 104.696 73.6917 141.515L75.4403 142.486ZM33.5518 84.9282L73.7457 142.573L75.3863 141.429L35.1924 83.7843L33.5518 84.9282ZM178.456 14.0671C119.851 14.0671 67.6017 41.2676 33.5916 83.7311L35.1526 84.9814C68.8 42.9708 120.485 16.0671 178.456 16.0671V14.0671ZM364.001 199.69C364.001 97.1859 280.963 14.0671 178.456 14.0671V16.0671C279.857 16.0671 362.001 98.2894 362.001 199.69H364.001ZM178.456 385.313C280.94 385.313 364.001 302.194 364.001 199.69H362.001C362.001 301.09 279.835 383.313 178.456 383.313V385.313ZM162.634 384.569C167.839 385.007 173.1 385.313 178.456 385.313V383.313C173.175 383.313 167.973 383.011 162.802 382.576L162.634 384.569ZM163.542 383.006L163.538 383.001L161.898 384.144L161.901 384.15L163.542 383.006ZM28.9814 309.38C59.7703 351.397 107.813 379.873 162.636 384.574L162.807 382.581C108.578 377.931 61.0536 349.765 30.5946 308.198L28.9814 309.38ZM29.4445 307.802L29.1997 307.98L30.3763 309.598L30.6211 309.42L29.4445 307.802ZM20.1992 296.269L29.2128 309.183L30.8528 308.039L21.8392 295.125L20.1992 296.269ZM20.009 295.984L20.187 296.252L21.8514 295.143L21.6734 294.875L20.009 295.984ZM-13.1176 248.533L20.0212 296.002L21.6611 294.857L-11.4777 247.388L-13.1176 248.533ZM-88.8098 139.967L-13.118 248.532L-11.4774 247.389L-87.1692 138.824L-88.8098 139.967ZM-88.9998 139.683L-88.8217 139.95L-87.1573 138.841L-87.3354 138.574L-88.9998 139.683ZM-99.1136 125.199C-95.406 129.747 -92.0291 134.582 -89.0275 139.639L-87.3077 138.618C-90.3596 133.477 -93.7931 128.56 -97.5634 123.935L-99.1136 125.199ZM-99.3698 124.873L-99.1249 125.185L-97.552 123.949L-97.7969 123.638L-99.3698 124.873ZM-99.5089 124.719L-99.3309 124.919L-97.8357 123.591L-98.0137 123.391L-99.5089 124.719ZM-117.962 106.762C-111.206 112.064 -104.982 118.07 -99.5334 124.69L-97.9892 123.419C-103.535 116.681 -109.864 110.574 -116.728 105.189L-117.962 106.762ZM-190.455 81.7936C-163.089 81.7936 -137.955 91.0878 -117.962 106.762L-116.728 105.189C-137.062 89.2467 -162.627 79.7936 -190.455 79.7936V81.7936ZM-308.301 199.69C-308.301 134.604 -255.512 81.7936 -190.455 81.7936V79.7936C-256.618 79.7936 -310.301 133.5 -310.301 199.69H-308.301ZM-190.455 317.586C-255.535 317.586 -308.301 264.776 -308.301 199.69H-310.301C-310.301 265.879 -256.64 319.586 -190.455 319.586V317.586ZM-87.2399 256.627C-107.346 292.971 -146.033 317.586 -190.455 317.586V319.586C-145.275 319.586 -105.933 294.549 -85.4898 257.596L-87.2399 256.627ZM-45.3507 314.184L-85.5446 256.54L-87.1852 257.684L-46.9912 315.328L-45.3507 314.184ZM-190.455 385.312C-131.739 385.312 -79.3548 358 -45.3889 315.379L-46.953 314.133C-80.5556 356.298 -132.373 383.312 -190.455 383.312V385.312ZM-376 199.69C-376 302.194 -292.917 385.312 -190.455 385.312V383.312C-291.812 383.312 -374 301.09 -374 199.69H-376ZM-190.5 14C-292.917 14.0672 -376 97.1855 -376 199.69H-374C-374 98.2892 -291.811 16.0664 -190.499 16L-190.5 14ZM-61.2307 66.5174C-94.6376 34.0142 -140.22 14 -190.5 14V16C-140.762 16 -95.6743 35.796 -62.6254 67.9509L-61.2307 66.5174ZM-40.1287 90.942C-46.4178 82.1873 -53.5119 73.9932 -61.2323 66.5158L-62.6237 67.9524C-54.9876 75.3482 -47.9716 83.4522 -41.753 92.1088L-40.1287 90.942ZM-39.6648 91.5312L-40.1544 90.9078L-41.7273 92.1431L-41.2376 92.7665L-39.6648 91.5312ZM-36.6488 95.8516L-39.631 91.5767L-41.2714 92.721L-38.2891 96.9959L-36.6488 95.8516ZM-36.3136 96.3769L-36.6252 95.887L-38.3127 96.9605L-38.0011 97.4503L-36.3136 96.3769ZM1.38638 150.424L-36.3372 96.3415L-37.9775 97.4857L-0.253998 151.568L1.38638 150.424ZM75.4315 256.629L1.38651 150.424L-0.25412 151.568L73.7908 257.773L75.4315 256.629ZM74.6556 257.267C75.5502 256.82 75.5501 256.82 75.5501 256.82C75.5501 256.82 75.55 256.82 75.55 256.82C75.55 256.82 75.5499 256.82 75.5498 256.82C75.5497 256.819 75.5496 256.819 75.5495 256.819C75.5492 256.818 75.549 256.818 75.5487 256.817C75.5482 256.816 75.5476 256.815 75.547 256.814C75.5458 256.812 75.5445 256.809 75.543 256.806C75.5401 256.801 75.5365 256.794 75.5324 256.786C75.5245 256.771 75.5133 256.751 75.4994 256.728C75.4836 256.702 75.4209 256.596 75.3185 256.494L73.9038 257.907C73.8559 257.86 73.8257 257.818 73.8136 257.801C73.799 257.781 73.7892 257.765 73.7841 257.757C73.7785 257.747 73.7743 257.74 73.7712 257.734C73.7696 257.731 73.7679 257.728 73.7663 257.725C73.7655 257.723 73.7646 257.721 73.7638 257.72C73.7633 257.719 73.7629 257.718 73.7625 257.717C73.7622 257.717 73.762 257.716 73.7618 257.716C73.7617 257.715 73.7616 257.715 73.7614 257.715C73.7614 257.715 73.7613 257.715 73.7613 257.715C73.7612 257.715 73.7612 257.715 73.7612 257.715C73.7611 257.714 73.7611 257.714 74.6556 257.267Z" fill="white" mask="url(#path-1-inside-1_107_1082)"/>
</g>
<defs>
<filter id="filter0_f_107_1082" x="-390" y="0" width="768.001" height="399.313" filterUnits="userSpaceOnUse" color-interpolation-filters="sRGB">
<feFlood flood-opacity="0" result="BackgroundImageFix"/>
<feBlend mode="normal" in="SourceGraphic" in2="BackgroundImageFix" result="shape"/>
<feGaussianBlur stdDeviation="7.5" result="effect1_foregroundBlur_107_1082"/>
</filter>
</defs>
</svg>

