
<svg viewBox="0 0 294 148" fill="none" xmlns="http://www.w3.org/2000/svg">
<path fill-rule="evenodd" clip-rule="evenodd" d="M125.114 21.2818C111.889 8.41995 93.8434 0.5 73.9384 0.5C33.3924 0.526576 0.5 33.4186 0.5 73.9824C0.5 114.546 33.3922 147.438 73.956 147.438C97.2014 147.438 117.94 136.63 131.387 119.764L131.619 119.472L115.057 95.7293L114.668 96.4313C106.738 110.761 91.4777 120.466 73.956 120.466C48.2858 120.466 27.4728 99.6439 27.4728 73.9824C27.4728 48.321 48.2946 27.4992 73.956 27.4992C84.7506 27.4992 94.6641 31.1636 102.55 37.3437C105.216 39.4342 107.67 41.8023 109.819 44.4122L109.825 44.4195L109.892 44.4944L109.979 44.6057L109.985 44.6127C111.447 46.406 112.779 48.3125 113.963 50.3062L113.97 50.3174L114.048 50.4339L143.977 93.3436L157.072 112.093L157.078 112.102L157.142 112.198L160.431 116.908L160.325 116.985L160.621 117.39C172.81 134.017 191.83 145.286 213.535 147.146L214.598 147.237L214.563 147.187C216.34 147.322 218.136 147.412 219.961 147.412C260.533 147.412 293.417 114.52 293.417 73.956C293.417 33.3922 260.542 0.5 219.961 0.5C196.759 0.5 176.074 11.2641 162.61 28.0679L162.376 28.3598L178.938 52.1024L179.327 51.4023C187.258 37.1252 202.474 27.4728 219.961 27.4728C245.64 27.4728 266.444 48.2945 266.444 73.956C266.444 99.6176 245.64 120.439 219.961 120.439C205.842 120.439 193.203 114.138 184.689 104.196L184.621 104.249L184.605 104.231C183.959 103.48 183.334 102.716 182.745 101.919L182.674 101.823L182.653 101.812C181.377 100.136 180.227 98.3595 179.202 96.498L179.201 96.4955L179.195 96.4852C179.194 96.4819 179.191 96.478 179.189 96.474L179.185 96.4674L179.185 96.4672C179.18 96.4586 179.166 96.4352 179.143 96.4066L163.3 73.6876L163.298 73.6888L149.882 54.4543L134.975 33.0919L134.852 32.8982L133.659 31.1886L133.463 30.9395C130.975 27.4781 128.168 24.2384 125.114 21.2818Z" fill="#FF5813"/>
</svg>