<svg width="30" height="30" viewBox="0 0 30 30" fill="none" xmlns="http://www.w3.org/2000/svg">
<path d="M7.5293 2.06042C5.18197 3.41552 5.59904 7.31733 6.25746 9.94755C3.6409 10.6885 -7.02325e-07 12.2789 -5.83379e-07 15C-4.64437e-07 17.7211 3.64066 19.3115 6.25746 20.0525C5.59934 22.6816 5.18168 26.5843 7.5293 27.9396C9.87838 29.2959 13.0515 26.9795 15 25.0933C16.9516 26.9825 20.123 29.2951 22.4707 27.9396C24.8177 26.5847 24.4039 22.6946 23.7425 20.0524C26.3592 19.3116 30 17.7211 30 15C30 12.2811 26.365 10.6901 23.7425 9.94754C24.4041 7.30485 24.8174 3.41522 22.4707 2.06042C20.1216 0.704148 16.9485 3.02053 15 4.90673C13.0484 3.01749 9.87697 0.704969 7.5293 2.06042ZM8.4082 3.58274C9.84135 2.75534 12.5844 5.01442 13.7832 6.17452C13.0169 7.02999 12.2632 7.98003 11.5389 9.00407C10.2903 9.11886 9.09017 9.29575 7.96453 9.53053C7.55361 7.88874 6.98326 4.4054 8.4082 3.58274ZM19.9775 15C19.2658 16.4525 18.4235 17.9195 17.4886 19.3109C16.6761 19.366 15.8442 19.3946 15 19.3946C14.1558 19.3946 13.3239 19.366 12.5115 19.3109C11.6094 17.9683 10.7602 16.5054 10.0226 15C10.7343 13.5475 11.5766 12.0806 12.5115 10.6892C13.3239 10.634 14.1558 10.6055 15 10.6055C15.8442 10.6055 16.6761 10.634 17.4886 10.6892C18.3906 12.0318 19.2399 13.4948 19.9775 15ZM19.7253 10.9158C20.3494 11.001 20.9556 11.1033 21.5399 11.222C21.3513 11.7877 21.1372 12.3645 20.899 12.9486C20.5267 12.2564 20.1466 11.5971 19.7253 10.9158ZM20.899 17.0515C21.1372 17.6356 21.3513 18.2124 21.5399 18.7782C20.9557 18.8969 20.3495 18.9991 19.7253 19.0843C20.1376 18.4176 20.5188 17.7584 20.899 17.0515ZM16.1728 21.1345C15.7867 21.632 15.3949 22.1051 15 22.5507C14.6051 22.1051 14.2133 21.632 13.8272 21.1345C14.2155 21.1462 14.6065 21.1524 15 21.1524C15.3935 21.1524 15.7845 21.1462 16.1728 21.1345ZM10.2747 19.0843C9.65057 18.9991 9.04435 18.8969 8.46006 18.7782C8.64867 18.2124 8.86277 17.6356 9.10102 17.0515C9.46857 17.7349 9.84838 18.3948 10.2747 19.0843ZM9.10102 12.9485C8.86283 12.3644 8.64867 11.7876 8.46006 11.2219C9.0443 11.1032 9.65051 11.0009 10.2747 10.9158C9.86736 11.5745 9.4858 12.2331 9.10102 12.9485ZM13.8271 8.86555C14.2133 8.36803 14.605 7.89495 15 7.4494C15.3949 7.89495 15.7867 8.36803 16.1729 8.86555C15.7845 8.85389 15.3935 8.84768 15 8.84768C14.6065 8.84768 14.2155 8.85389 13.8271 8.86555ZM1.75781 15C1.75781 13.3394 5.1457 12.0887 6.7466 11.6354C7.10467 12.7287 7.55133 13.8586 8.07703 15C7.55133 16.1415 7.10467 17.2714 6.7466 18.3647C5.1508 17.9128 1.75781 16.662 1.75781 15ZM8.4082 26.4174C6.98262 25.5943 7.54852 22.1315 7.96453 20.4695C9.09018 20.7043 10.2903 20.8812 11.5389 20.996C12.2632 22.02 13.017 22.9701 13.7832 23.8255C12.5859 24.9842 9.84182 27.245 8.4082 26.4174ZM21.5918 26.4174C20.1587 27.2447 17.4155 24.9856 16.2168 23.8255C16.9831 22.9701 17.7368 22.02 18.4611 20.996C19.7097 20.8812 20.9098 20.7043 22.0355 20.4695C22.4393 22.083 23.0254 25.5896 21.5918 26.4174ZM28.2422 15C28.2422 16.6606 24.8543 17.9114 23.2534 18.3647C22.8953 17.2714 22.4487 16.1415 21.923 15C22.4487 13.8586 22.8953 12.7287 23.2534 11.6354C24.8491 12.0872 28.2422 13.338 28.2422 15ZM21.5918 3.58274C23.0254 4.41044 22.4392 7.91739 22.0355 9.53053C20.9098 9.29575 19.7097 9.11886 18.4611 9.00407C17.7368 7.98003 16.983 7.02999 16.2168 6.17452C17.4141 5.01583 20.1582 2.75505 21.5918 3.58274Z" fill="white"/>
<path d="M12.3633 15C12.3633 16.4539 13.5461 17.6367 15 17.6367C16.4539 17.6367 17.6367 16.4539 17.6367 15C17.6367 13.5461 16.4539 12.3633 15 12.3633C13.5461 12.3633 12.3633 13.5461 12.3633 15ZM15.8789 15C15.8789 15.4846 15.4846 15.8789 15 15.8789C14.5154 15.8789 14.1211 15.4846 14.1211 15C14.1211 14.5154 14.5154 14.1211 15 14.1211C15.4846 14.1211 15.8789 14.5154 15.8789 15Z" fill="white"/>
</svg>
