<svg width="30" height="30" viewBox="0 0 30 30" fill="none" xmlns="http://www.w3.org/2000/svg">
<g clip-path="url(#clip0_116_1379)">
<path d="M29.7426 6.67618C29.3994 6.33294 28.8429 6.333 28.4997 6.67618C28.0852 7.09067 27.6289 7.4178 27.1387 7.67755L22.3225 2.86137C22.5823 2.37124 22.9094 1.91485 23.3239 1.50036C23.6671 1.15712 23.6671 0.600652 23.3239 0.25741C22.9806 -0.0857739 22.4242 -0.0858325 22.0809 0.25741C19.796 2.54221 19.5961 5.61335 19.5787 8.66702C16.5251 8.68454 13.4541 8.8844 11.1693 11.1693C8.88444 13.4541 8.68452 16.5251 8.667 19.5787C5.61333 19.5962 2.54219 19.796 0.257388 22.0809C-0.0857959 22.4242 -0.0857959 22.9807 0.257388 23.3239C0.60063 23.6671 1.15709 23.6671 1.50034 23.3239C1.91483 22.9094 2.37116 22.5823 2.86129 22.3225L7.67747 27.1387C7.41772 27.6288 7.09059 28.0852 6.6761 28.4997C6.33286 28.843 6.33286 29.3994 6.6761 29.7427C7.01934 30.0858 7.57581 30.0859 7.91905 29.7427C10.204 27.4579 10.4038 24.3867 10.4213 21.3331C13.4748 21.3155 16.5459 21.1157 18.8307 18.8307C21.1155 16.546 21.3155 13.475 21.333 10.4214C24.3866 10.4039 27.4578 10.2041 29.7426 7.91913C30.0859 7.57589 30.0858 7.01942 29.7426 6.67618ZM25.3084 8.33321C24.0845 8.60743 22.7363 8.65542 21.3365 8.66356C21.3446 7.26376 21.3926 5.91551 21.6668 4.69161L25.3084 8.33321ZM19.2449 14.3964L15.6036 10.7552C16.8275 10.481 18.1756 10.433 19.5752 10.4248C19.5671 11.8245 19.5191 13.1726 19.2449 14.3964ZM10.7552 15.6036L14.3965 19.2448C13.1726 19.519 11.8245 19.567 10.4249 19.5752C10.433 18.1756 10.481 16.8274 10.7552 15.6036ZM4.69165 21.6668C5.91555 21.3926 7.26379 21.3446 8.6636 21.3365C8.65545 22.7363 8.60747 24.0845 8.33325 25.3084L4.69165 21.6668ZM16.2267 18.5892L11.4108 13.7733C11.6706 13.2832 11.9977 12.8268 12.4123 12.4123C12.8269 11.9977 13.2832 11.6706 13.7734 11.4108L18.5893 16.2267C18.3295 16.7169 18.0024 17.1733 17.5878 17.5877C17.1733 18.0024 16.7169 18.3295 16.2267 18.5892Z" fill="white"/>
</g>
<defs>
<clipPath id="clip0_116_1379">
<rect width="30" height="30" fill="white"/>
</clipPath>
</defs>
</svg>
