<svg width="30" height="30" viewBox="0 0 30 30" fill="none" xmlns="http://www.w3.org/2000/svg">
<g clip-path="url(#clip0_116_1362)">
<path d="M29.2175 0.778641C28.2658 -0.173098 26.69 -0.252668 24.5339 0.541688C22.8944 1.14579 20.8942 2.26721 18.7253 3.79587C14.619 2.43702 9.90918 3.38741 6.64779 6.64862C3.38647 9.90995 2.43607 14.6198 3.79498 18.7262C1.89297 21.4249 -1.54355 26.8971 0.777813 29.2183C2.60219 31.0427 6.27947 29.2738 8.52643 27.9712C9.40744 27.4604 10.3268 26.8664 11.2706 26.2013C15.4108 27.5712 20.1098 26.586 23.3475 23.3483C26.6086 20.0872 27.5591 15.3776 26.2005 11.2714C26.8656 10.3277 27.4596 9.40827 27.9704 8.52725C30.1609 4.74872 30.5805 2.14171 29.2175 0.778641ZM7.47678 26.1606C4.3201 27.9906 2.62604 28.1068 2.25777 27.7384C2.03295 27.5136 1.9627 26.7292 2.50475 25.2584C2.95352 24.0405 3.73984 22.5743 4.80408 20.9608C5.82432 22.7059 7.2891 24.1714 9.03672 25.1929C8.50469 25.5431 7.98373 25.8667 7.47678 26.1606ZM10.9677 23.8387C4.80268 21.0363 3.34996 12.9063 8.12764 8.12846C12.9057 3.35044 21.0358 4.80397 23.838 10.9685C22.1842 13.1977 20.1371 15.5512 17.8437 17.8445C15.5504 20.1378 13.1969 22.1849 10.9677 23.8387ZM21.8676 21.8685C19.576 24.16 16.4151 25.0648 13.4365 24.5838C15.3764 23.0551 17.3743 21.2736 19.3235 19.3244C21.2727 17.3751 23.0543 15.3773 24.583 13.4373C25.064 16.4159 24.1593 19.5768 21.8676 21.8685ZM26.1597 7.47766C25.8658 7.98462 25.5422 8.50557 25.192 9.03743C24.1718 7.29204 22.7074 5.82649 20.9599 4.80485C22.5735 3.74067 24.0396 2.95429 25.2575 2.50546C26.7282 1.96346 27.5126 2.03366 27.7376 2.25848C28.1061 2.62692 27.9899 4.32087 26.1597 7.47766Z" fill="white"/>
</g>
<defs>
<clipPath id="clip0_116_1362">
<rect width="30" height="30" fill="white"/>
</clipPath>
</defs>
</svg>
