<svg width="1181" height="591" viewBox="0 0 1181 591" fill="none" xmlns="http://www.w3.org/2000/svg">
<g style="mix-blend-mode:multiply">
<mask id="path-1-inside-1_19_1266" fill="white">
<path fill-rule="evenodd" clip-rule="evenodd" d="M719.571 387.693C723.845 395.461 728.653 402.872 733.995 409.855L734.066 409.891C736.488 413.169 739.052 416.305 741.688 419.369L742.888 421.09C777.695 460.764 828.746 485.819 885.678 485.819C990.743 485.819 1075.86 400.592 1075.86 295.553C1075.86 190.515 990.743 105.287 885.678 105.287C814.127 105.287 751.872 144.802 719.426 203.235L655.105 110.988C709.24 43.3976 792.402 0.106812 885.678 0.106812C1048.83 0.106812 1181 132.402 1181 295.553C1181 458.705 1048.8 591 885.678 591C877.168 591 868.796 590.514 860.494 589.815L860.501 589.824C773.243 582.342 696.777 537.02 647.771 470.142L648.162 469.857L633.738 449.191L633.453 448.764L580.422 372.8L459.295 199.067L459.01 198.639C454.166 190.48 448.717 182.677 442.733 175.337L442.342 174.838L442.057 174.517C433.26 163.828 423.216 154.137 412.318 145.585C380.051 120.288 339.485 105.288 295.322 105.288C190.328 105.288 105.136 190.515 105.136 295.553C105.136 400.592 190.292 485.819 295.322 485.819C367.015 485.819 429.449 446.092 461.894 387.444L526.216 479.691C472.152 547.531 388.776 591 295.322 591C132.239 591 0 458.705 0 295.553C0 132.402 132.24 0.106891 295.251 0C375.278 0 447.826 31.8535 501 83.5887C513.287 95.4893 524.577 108.53 534.585 122.461L535.369 123.459L540.141 130.3L540.64 131.084L601.008 217.63L719.5 387.587C719.535 387.622 719.571 387.693 719.571 387.693Z"/>
</mask>
<path d="M733.995 409.855L729.23 413.501L730.071 414.6L731.308 415.22L733.995 409.855ZM719.571 387.693L714.203 390.374L714.256 390.481L714.314 390.586L719.571 387.693ZM734.066 409.891L738.892 406.326L738.038 405.17L736.753 404.526L734.066 409.891ZM741.688 419.369L746.61 415.938L746.436 415.688L746.237 415.456L741.688 419.369ZM742.888 421.09L737.966 424.521L738.157 424.796L738.378 425.047L742.888 421.09ZM719.426 203.235L714.504 206.667L720.004 214.554L724.672 206.148L719.426 203.235ZM655.105 110.988L650.422 107.238L647.617 110.74L650.183 114.42L655.105 110.988ZM860.494 589.815L860.997 583.836L848.302 582.768L855.565 593.236L860.494 589.815ZM860.501 589.824L859.988 595.802L872.708 596.893L865.43 586.404L860.501 589.824ZM647.771 470.142L644.241 465.29L639.372 468.832L642.931 473.688L647.771 470.142ZM648.162 469.857L651.692 474.709L656.45 471.247L653.082 466.423L648.162 469.857ZM633.738 449.191L628.745 452.518L628.781 452.572L628.818 452.626L633.738 449.191ZM633.453 448.764L638.446 445.437L638.41 445.383L638.373 445.329L633.453 448.764ZM580.422 372.8L575.5 376.232L575.502 376.235L580.422 372.8ZM459.295 199.067L454.302 202.394L454.337 202.446L454.373 202.498L459.295 199.067ZM459.01 198.639L453.85 201.702L453.93 201.836L454.017 201.966L459.01 198.639ZM442.733 175.337L438.015 179.043L438.048 179.086L438.083 179.128L442.733 175.337ZM442.342 174.838L447.06 171.132L446.948 170.989L446.827 170.853L442.342 174.838ZM442.057 174.517L437.424 178.33L437.496 178.418L437.571 178.503L442.057 174.517ZM412.318 145.585L416.022 140.865L416.02 140.864L412.318 145.585ZM461.894 387.444L466.816 384.012L461.307 376.111L456.644 384.54L461.894 387.444ZM526.216 479.691L530.908 483.43L533.697 479.93L531.137 476.259L526.216 479.691ZM295.251 0L295.251 -6L295.247 -6L295.251 0ZM501 83.5887L496.816 87.8892L496.826 87.8987L501 83.5887ZM534.585 122.461L529.712 125.962L529.787 126.066L529.867 126.167L534.585 122.461ZM535.369 123.459L540.29 120.026L540.192 119.887L540.087 119.753L535.369 123.459ZM540.141 130.3L545.204 127.08L545.135 126.972L545.062 126.867L540.141 130.3ZM540.64 131.084L535.577 134.304L535.646 134.412L535.719 134.517L540.64 131.084ZM601.008 217.63L605.93 214.198L605.929 214.197L601.008 217.63ZM719.5 387.587L714.578 391.018L714.882 391.454L715.257 391.829L719.5 387.587ZM738.761 406.21C733.607 399.474 728.962 392.315 724.828 384.801L714.314 390.586C718.727 398.606 723.698 406.27 729.23 413.501L738.761 406.21ZM736.753 404.526L736.682 404.491L731.308 415.22L731.379 415.256L736.753 404.526ZM746.237 415.456C743.664 412.465 741.2 409.449 738.892 406.326L729.241 413.457C731.777 416.889 734.441 420.144 737.139 423.281L746.237 415.456ZM747.81 417.659L746.61 415.938L736.766 422.8L737.966 424.521L747.81 417.659ZM885.678 479.819C830.547 479.819 781.115 455.565 747.398 417.133L738.378 425.047C774.274 465.963 826.945 491.819 885.678 491.819V479.819ZM1069.86 295.553C1069.86 397.282 987.426 479.819 885.678 479.819V491.819C994.061 491.819 1081.86 403.901 1081.86 295.553H1069.86ZM885.678 111.287C987.426 111.287 1069.86 193.825 1069.86 295.553H1081.86C1081.86 187.205 994.061 99.2875 885.678 99.2875V111.287ZM724.672 206.148C756.103 149.541 816.395 111.287 885.678 111.287V99.2875C811.859 99.2875 747.64 140.062 714.181 200.323L724.672 206.148ZM650.183 114.42L714.504 206.667L724.348 199.803L660.027 107.557L650.183 114.42ZM885.678 -5.89319C790.501 -5.89319 705.645 38.2881 650.422 107.238L659.788 114.739C712.835 48.5072 794.303 6.10681 885.678 6.10681V-5.89319ZM1187 295.553C1187 129.092 1052.15 -5.89319 885.678 -5.89319V6.10681C1045.51 6.10681 1175 135.713 1175 295.553H1187ZM885.678 597C1052.11 597 1187 462.015 1187 295.553H1175C1175 455.394 1045.48 585 885.678 585V597ZM859.991 595.794C868.392 596.501 876.943 597 885.678 597V585C877.392 585 869.199 584.526 860.997 583.836L859.991 595.794ZM865.43 586.404L865.424 586.395L855.565 593.236L855.571 593.245L865.43 586.404ZM642.931 473.688C692.927 541.917 770.948 588.167 859.988 595.802L861.013 583.846C775.538 576.517 700.627 532.123 652.61 466.596L642.931 473.688ZM644.632 465.005L644.241 465.29L651.301 474.994L651.692 474.709L644.632 465.005ZM628.818 452.626L643.242 473.291L653.082 466.423L638.658 445.757L628.818 452.626ZM628.46 452.091L628.745 452.518L638.731 445.865L638.446 445.437L628.46 452.091ZM575.502 376.235L628.533 452.198L638.373 445.329L585.342 369.365L575.502 376.235ZM454.373 202.498L575.5 376.232L585.344 369.368L464.216 195.635L454.373 202.498ZM454.017 201.966L454.302 202.394L464.287 195.739L464.002 195.312L454.017 201.966ZM438.083 179.128C443.878 186.237 449.157 193.796 453.85 201.702L464.169 195.576C459.175 187.163 453.555 179.116 447.384 171.546L438.083 179.128ZM437.623 178.544L438.015 179.043L447.452 171.631L447.06 171.132L437.623 178.544ZM437.571 178.503L437.856 178.823L446.827 170.853L446.542 170.532L437.571 178.503ZM408.614 150.306C419.191 158.605 428.919 167.995 437.424 178.33L446.69 170.705C437.601 159.661 427.242 149.669 416.022 140.865L408.614 150.306ZM295.322 111.288C338.1 111.288 377.371 125.811 408.616 150.307L416.02 140.864C382.73 114.765 340.87 99.2876 295.322 99.2876V111.288ZM111.136 295.553C111.136 193.827 193.644 111.288 295.322 111.288V99.2876C187.012 99.2876 99.1363 187.204 99.1363 295.553H111.136ZM295.322 479.819C193.609 479.819 111.136 397.281 111.136 295.553H99.1363C99.1363 403.902 186.976 491.819 295.322 491.819V479.819ZM456.644 384.54C425.211 441.358 364.741 479.819 295.322 479.819V491.819C369.29 491.819 433.687 450.825 467.145 390.349L456.644 384.54ZM531.137 476.259L466.816 384.012L456.973 390.876L521.294 483.123L531.137 476.259ZM295.322 597C390.679 597 475.754 552.638 530.908 483.43L521.523 475.952C468.549 542.424 386.873 585 295.322 585V597ZM-6 295.553C-6 462.016 128.923 597 295.322 597V585C135.556 585 6 455.393 6 295.553H-6ZM295.247 -6C128.922 -5.89094 -6 129.091 -6 295.553H6C6 135.713 135.557 6.10472 295.255 6L295.247 -6ZM505.184 79.2883C450.936 26.5081 376.904 -6 295.251 -6V6C373.652 6 444.716 37.199 496.816 87.8892L505.184 79.2883ZM539.458 118.961C529.239 104.735 517.714 91.4242 505.174 79.2788L496.826 87.8987C508.86 99.5544 519.916 112.325 529.712 125.962L539.458 118.961ZM540.087 119.753L539.304 118.755L529.867 126.167L530.65 127.165L540.087 119.753ZM545.062 126.867L540.29 120.026L530.448 126.892L535.22 133.733L545.062 126.867ZM545.702 127.863L545.204 127.08L535.079 133.521L535.577 134.304L545.702 127.863ZM605.929 214.197L545.561 127.651L535.719 134.517L596.087 221.063L605.929 214.197ZM724.422 384.155L605.93 214.198L596.086 221.061L714.578 391.018L724.422 384.155ZM719.571 387.693C724.939 385.013 724.939 385.012 724.938 385.012C724.938 385.012 724.938 385.011 724.938 385.011C724.937 385.01 724.937 385.009 724.937 385.009C724.936 385.007 724.935 385.006 724.935 385.004C724.933 385.001 724.932 384.999 724.93 384.996C724.927 384.99 724.924 384.983 724.921 384.977C724.914 384.964 724.907 384.951 724.9 384.936C724.885 384.908 724.868 384.875 724.849 384.84C724.812 384.771 724.76 384.677 724.695 384.568C724.636 384.471 724.309 383.91 723.742 383.344L715.257 391.829C714.726 391.298 714.434 390.791 714.403 390.739C714.351 390.652 714.31 390.578 714.281 390.524C714.265 390.495 714.251 390.469 714.239 390.444C714.232 390.432 714.226 390.42 714.22 390.408C714.217 390.402 714.214 390.397 714.211 390.391C714.21 390.388 714.209 390.385 714.207 390.382C714.206 390.381 714.206 390.38 714.205 390.378C714.205 390.377 714.204 390.377 714.204 390.376C714.204 390.376 714.204 390.375 714.204 390.375C714.203 390.374 714.203 390.374 719.571 387.693Z" fill="black" mask="url(#path-1-inside-1_19_1266)"/>
</g>
</svg>
