<svg width="89" height="27" viewBox="0 0 89 27" fill="none" xmlns="http://www.w3.org/2000/svg">
<g clip-path="url(#clip0_7_388)">
<path d="M51.9059 8C49.2435 8 47.2967 8.97301 46.0674 10.9153V8.49214H42V27.4263H46.0674V17.2774C46.0674 15.4347 46.5064 14.0653 47.3864 13.1693C48.2645 12.2733 49.421 11.8244 50.8522 11.8244C52.1581 11.8244 53.1876 12.2038 53.9405 12.9608C54.6935 13.7178 55.0709 14.8035 55.0709 16.218V27.4263H59.1382V15.801C59.1382 13.3778 58.4731 11.4713 57.141 10.0831C55.8107 8.695 54.0638 8 51.9059 8Z" fill="white"/>
<path d="M65 2C64.4393 2 63.9662 2.19842 63.5794 2.59382C63.1927 2.99065 63 3.45938 63 4C63 4.54062 63.1984 5.01078 63.5938 5.40618C63.9892 5.80302 64.4579 6 65 6C65.5421 6 66.0093 5.80158 66.4062 5.40618C66.8016 5.01078 67 4.54206 67 4C67 3.45794 66.8073 2.99065 66.4206 2.59382C66.0338 2.19842 65.5607 2 65 2Z" fill="white"/>
<path d="M67.0674 8H63V26.9342H67.0674V8Z" fill="white"/>
<path d="M89.4946 8H84.7472L80.4164 13.9658L76.0837 8H71.3755L78.0623 17.2079L71 26.9342H75.7456L80.4351 20.4763L85.1246 26.9342H89.8328L82.7892 17.2342L89.4946 8Z" fill="white"/>
<path d="M23.7727 21.3406C23.5989 21.1133 23.4439 20.871 23.3056 20.6193L21.2504 17.657L19.4662 15.0855L17.51 12.2698L17.4932 12.2454L17.3381 12.0219L17.3139 11.9899C16.9888 11.5372 16.6244 11.1127 16.2265 10.7258C14.5039 9.04273 12.1554 8.00586 9.56214 8.00586C4.28222 8.00211 0 12.3093 0 17.6195C0 22.9297 4.28222 27.2368 9.56588 27.2368C12.5926 27.2368 15.2923 25.8224 17.0448 23.6134L14.9616 20.6117C13.9116 22.5202 11.8882 23.8144 9.56588 23.8144C6.1655 23.8144 3.40597 21.04 3.40597 17.6213C3.40597 14.2027 6.1655 11.4283 9.56588 11.4283C10.9952 11.4283 12.3105 11.9167 13.3549 12.7394C13.708 13.0174 14.0331 13.333 14.3189 13.6805L14.3283 13.6918L14.3413 13.7087C14.5356 13.9472 14.7113 14.2008 14.8682 14.4675L14.8776 14.4826L18.8011 20.1365L20.5181 22.6085L20.5274 22.6235L20.9945 23.296L20.9814 23.3054C22.5695 25.4824 25.045 26.957 27.8718 27.2011L24.0231 21.6524C23.9371 21.5528 23.8549 21.4495 23.7764 21.3443L23.7727 21.3406Z" fill="white"/>
<path d="M28.6958 8.00188C25.6747 8.00188 22.9805 9.41067 21.228 11.6103L23.3112 14.6119C24.3612 12.711 26.379 11.4243 28.6958 11.4243C32.098 11.4243 34.8557 14.1987 34.8557 17.6174C34.8557 21.036 32.098 23.8104 28.6958 23.8104C26.8256 23.8104 25.1497 22.9708 24.0212 21.6465L27.87 27.1953C28.1427 27.2197 28.4174 27.2347 28.6958 27.2347C33.9794 27.2347 38.2616 22.9295 38.2616 17.6174C38.2616 12.3053 33.9813 8 28.6958 8V8.00188Z" fill="white"/>
</g>
<defs>
<clipPath id="clip0_7_388">
<rect width="89" height="27" fill="white"/>
</clipPath>
</defs>
</svg>
